<svg xmlns="http://www.w3.org/2000/svg" width="2500" height="308" viewBox="394.847 1264.878 2478.014 305.642"><path d="M972.503 25.408 20.924 32.133 62.024 32.133h156.932c47.826 0 63.52-8.967 63.52-45.584v-26.156c-.001-35.869-15.694-45.584-63.521-45.584M2163.682 1376.972h-86.686l-4.483 8.967 95.652 70.246c17.936-10.463 38.112-20.924 59.036-31.387M2241.4 1508.495l84.444 61.277h86.686l3.736-8.221-125.545-91.916c-16.44 12.703-33.627 25.408-49.321 38.86" fill="#fff"/><path d="M2150.978 1569.772h-78.465l-6.727-10.463c53.059-51.562 290.696-271.265 807.074-294.431.001 0-432.681 14.945-721.882 304.894" fill="#fff"/></svg>
